<mxfile host="app.diagrams.net" modified="2023-11-24T21:59:29.808Z" agent="Mozilla/5.0 (Windows NT 10.0; Win64; x64) AppleWebKit/537.36 (KHTML, like Gecko) Chrome/119.0.0.0 Safari/537.36" version="22.1.4" etag="B3-7T9weNTelomfBrgmi" type="device">
  <diagram id="KNWYsSaTGXSYb9p3PN6r" name="Страница — 1">
    <mxGraphModel dx="1450" dy="974" grid="1" gridSize="10" guides="1" tooltips="1" connect="1" arrows="1" fold="1" page="0" pageScale="1" pageWidth="827" pageHeight="1169" background="none" math="0" shadow="0">
      <root>
        <mxCell id="0" />
        <mxCell id="1" parent="0" />
        <mxCell id="node3" value="&lt;p style=&quot;margin:0px;margin-top:4px;text-align:center;&quot;&gt;&lt;i&gt;&amp;lt;&amp;lt;interface&amp;gt;&amp;gt;&lt;/i&gt;&lt;br/&gt;&lt;b&gt;AirTrafficControl&lt;/b&gt;&lt;/p&gt;&lt;hr size=&quot;1&quot;/&gt;&lt;p style=&quot;margin:0 0 0 4px;line-height:1.6;&quot;&gt;+ sendMessage(String, Aircraft): void&lt;br/&gt;+ addAircraft(Aircraft): void&lt;/p&gt;" style="verticalAlign=top;align=left;overflow=fill;fontSize=14;fontFamily=Helvetica;html=1;rounded=0;shadow=0;comic=0;labelBackgroundColor=none;strokeWidth=1;" parent="1" vertex="1">
          <mxGeometry x="-116" y="-14" width="267" height="109" as="geometry" />
        </mxCell>
        <mxCell id="node2" value="&lt;p style=&quot;margin:0px;margin-top:4px;text-align:center;&quot;&gt;&lt;b&gt;AirTrafficControlCenter&lt;/b&gt;&lt;/p&gt;&lt;hr size=&quot;1&quot;/&gt;&lt;p style=&quot;margin:0 0 0 4px;line-height:1.6;&quot;&gt;+ AirTrafficControlCenter(): &lt;/p&gt;&lt;hr size=&quot;1&quot;/&gt;&lt;p style=&quot;margin:0 0 0 4px;line-height:1.6;&quot;&gt;+ addAircraft(Aircraft): void&lt;br/&gt;+ sendMessage(String, Aircraft): void&lt;/p&gt;" style="verticalAlign=top;align=left;overflow=fill;fontSize=14;fontFamily=Helvetica;html=1;rounded=0;shadow=0;comic=0;labelBackgroundColor=none;strokeWidth=1;" parent="1" vertex="1">
          <mxGeometry x="-116" y="123" width="267" height="121" as="geometry" />
        </mxCell>
        <mxCell id="node0" value="&lt;p style=&quot;margin:0px;margin-top:4px;text-align:center;&quot;&gt;&lt;b&gt;Aircraft&lt;/b&gt;&lt;/p&gt;&lt;hr size=&quot;1&quot;/&gt;&lt;p style=&quot;margin:0 0 0 4px;line-height:1.6;&quot;&gt;+ Aircraft(String, AirTrafficControl): &lt;/p&gt;&lt;hr size=&quot;1&quot;/&gt;&lt;p style=&quot;margin:0 0 0 4px;line-height:1.6;&quot;&gt;+ sendMessage(String): void&lt;br/&gt;+ receiveMessage(String): void&lt;/p&gt;" style="verticalAlign=top;align=left;overflow=fill;fontSize=14;fontFamily=Helvetica;html=1;rounded=0;shadow=0;comic=0;labelBackgroundColor=none;strokeWidth=1;" parent="1" vertex="1">
          <mxGeometry x="-116" y="280" width="258" height="121" as="geometry" />
        </mxCell>
        <mxCell id="node1" value="&lt;p style=&quot;margin:0px;margin-top:4px;text-align:center;&quot;&gt;&lt;b&gt;Main&lt;/b&gt;&lt;/p&gt;&lt;hr size=&quot;1&quot;/&gt;&lt;p style=&quot;margin:0 0 0 4px;line-height:1.6;&quot;&gt;+ Main(): &lt;/p&gt;&lt;hr size=&quot;1&quot;/&gt;&lt;p style=&quot;margin:0 0 0 4px;line-height:1.6;&quot;&gt;+ main(String[]): void&lt;/p&gt;" style="verticalAlign=top;align=left;overflow=fill;fontSize=14;fontFamily=Helvetica;html=1;rounded=0;shadow=0;comic=0;labelBackgroundColor=none;strokeWidth=1;" parent="1" vertex="1">
          <mxGeometry x="187" y="280" width="168" height="95" as="geometry" />
        </mxCell>
        <mxCell id="edge0" value="" style="html=1;rounded=1;edgeStyle=orthogonalEdgeStyle;dashed=1;startArrow=none;endArrow=block;endSize=12;strokeColor=#008200;exitX=0.500;exitY=0.000;exitDx=0;exitDy=0;entryX=0.500;entryY=1.001;entryDx=0;entryDy=0;" parent="1" source="node2" target="node3" edge="1">
          <mxGeometry width="50" height="50" relative="1" as="geometry">
            <Array as="points" />
          </mxGeometry>
        </mxCell>
      </root>
    </mxGraphModel>
  </diagram>
</mxfile>
